<?xml version="1.0" standalone="no"?>
<!DOCTYPE svg PUBLIC "-//W3C//DTD SVG 20010904//EN"
 "http://www.w3.org/TR/2001/REC-SVG-20010904/DTD/svg10.dtd">
<svg version="1.0" xmlns="http://www.w3.org/2000/svg"
 width="1080.000000pt" height="1080.000000pt" viewBox="0 0 1080.000000 1080.000000"
 preserveAspectRatio="xMidYMid meet">
<metadata>
Created by potrace 1.14, written by Peter Selinger 2001-2017
</metadata>
<g transform="translate(0.000000,1080.000000) scale(0.100000,-0.100000)"
fill="#000000" stroke="none">
<path d="M597 9669 c-105 -24 -186 -125 -188 -236 -1 -19 -5 -30 -11 -27 -6 4
-6 0 0 -12 6 -11 16 -38 23 -61 7 -24 16 -43 21 -43 5 0 6 -5 3 -10 -3 -6 1
-13 9 -16 9 -3 16 -12 16 -18 0 -7 15 -21 34 -31 19 -11 32 -23 30 -27 -3 -5
-2 -8 3 -7 4 1 11 0 16 -1 4 -1 10 -3 15 -5 4 -1 21 -7 37 -14 17 -7 32 -12
34 -11 2 1 7 -3 11 -10 4 -6 13 -13 21 -14 8 -2 31 -11 51 -20 21 -9 41 -16
44 -15 4 0 10 -4 13 -9 3 -6 15 -12 26 -14 11 -1 22 -5 25 -8 12 -12 51 -30
65 -30 8 0 15 -4 15 -10 0 -5 6 -10 13 -10 7 0 37 -11 65 -25 28 -14 57 -26
64 -27 7 -2 15 -5 18 -8 6 -6 84 -43 88 -41 1 1 16 -6 32 -14 16 -8 33 -14 37
-13 14 4 31 23 27 30 -7 12 8 38 19 31 5 -3 7 -2 4 3 -3 6 -2 16 3 24 7 11 12
11 23 2 7 -7 17 -9 20 -5 4 3 7 1 7 -5 0 -7 7 -12 15 -12 20 0 78 -29 87 -44
4 -6 8 -8 8 -4 0 4 12 1 27 -7 15 -8 30 -12 35 -9 4 3 8 1 8 -4 0 -5 10 -14
23 -19 20 -10 77 -100 77 -124 0 -11 41 -102 49 -109 3 -3 7 -12 9 -20 3 -15
20 -56 48 -114 8 -16 14 -37 14 -48 0 -10 4 -18 8 -18 5 0 15 -18 22 -40 7
-22 16 -40 19 -40 4 0 7 -10 8 -22 1 -11 8 -25 15 -29 7 -5 10 -9 5 -9 -4 0 2
-16 13 -37 10 -20 17 -40 14 -45 -3 -4 -1 -8 3 -8 5 0 20 -29 33 -64 14 -35
29 -62 34 -59 5 4 6 1 2 -6 -4 -6 -2 -19 6 -28 7 -9 13 -19 12 -22 -1 -13 21
-61 29 -61 4 0 5 -5 1 -11 -3 -6 -2 -14 4 -18 5 -3 12 -17 13 -31 2 -14 7 -27
10 -30 10 -10 49 -100 49 -115 0 -8 4 -15 9 -15 5 0 15 -20 22 -45 7 -25 17
-45 22 -45 4 0 5 -4 2 -10 -3 -5 -2 -10 3 -10 6 0 8 -10 4 -22 -3 -13 -1 -19
5 -15 10 6 29 -37 25 -55 -1 -5 3 -8 9 -8 5 0 7 -4 4 -10 -3 -5 -1 -10 4 -10
6 0 11 -9 11 -19 0 -11 4 -23 10 -26 6 -3 10 -15 10 -26 0 -10 5 -19 11 -19 6
0 9 -6 6 -12 -2 -7 3 -19 12 -26 13 -11 13 -12 1 -6 -10 5 -9 0 4 -14 11 -12
16 -22 12 -22 -3 0 5 -22 19 -50 14 -27 22 -50 18 -50 -5 0 -2 -4 5 -9 7 -4
14 -18 15 -29 1 -12 5 -22 9 -22 4 0 13 -18 19 -40 7 -22 15 -40 19 -40 4 0 7
-6 7 -12 0 -7 12 -40 28 -73 15 -33 28 -66 28 -72 0 -7 4 -13 9 -13 5 0 6 -4
3 -10 -3 -5 -1 -10 5 -10 6 0 8 -4 5 -10 -3 -5 -1 -10 5 -10 6 0 9 -4 5 -9 -3
-5 -1 -12 5 -16 6 -4 8 -11 5 -16 -4 -5 -1 -9 5 -9 6 0 8 -4 5 -10 -3 -5 -2
-10 2 -10 5 0 9 -10 10 -22 1 -11 7 -24 12 -28 6 -3 12 -15 14 -27 1 -12 9
-28 16 -37 7 -9 11 -23 7 -31 -3 -9 -2 -13 4 -10 6 3 10 -3 10 -14 0 -12 5
-21 11 -21 5 0 7 -4 4 -10 -3 -5 -1 -10 5 -10 6 0 8 -4 5 -10 -3 -5 -1 -10 5
-10 6 0 8 -4 5 -10 -3 -5 -2 -10 4 -10 6 0 8 -7 5 -15 -4 -8 -1 -15 5 -15 6 0
10 -3 9 -7 -1 -5 3 -18 10 -30 7 -13 10 -23 6 -23 -4 0 1 -9 11 -20 10 -11 15
-20 11 -20 -3 0 3 -18 14 -40 11 -22 18 -40 14 -40 -3 0 2 -7 10 -16 9 -8 14
-20 11 -25 -4 -5 -1 -9 4 -9 6 0 11 -9 11 -20 0 -11 4 -20 8 -20 5 0 9 -6 9
-14 0 -8 11 -38 26 -67 14 -30 27 -63 29 -74 2 -11 11 -27 20 -36 10 -9 15
-19 12 -22 -3 -3 1 -18 10 -35 8 -16 12 -32 9 -36 -4 -3 -1 -6 5 -6 6 0 13
-14 17 -30 4 -16 11 -30 16 -30 6 0 7 -4 4 -10 -3 -5 -2 -10 2 -10 5 0 9 -10
10 -22 1 -11 8 -25 15 -29 7 -5 9 -9 4 -9 -4 0 -1 -11 7 -23 8 -13 17 -32 19
-43 2 -10 9 -25 16 -33 7 -7 11 -20 8 -27 -3 -8 -1 -14 3 -14 9 0 35 -59 32
-72 0 -5 3 -8 9 -8 5 0 7 -7 4 -15 -4 -8 -1 -15 6 -15 6 0 8 -4 5 -10 -3 -5
-1 -10 6 -10 7 0 10 -3 6 -6 -3 -3 3 -22 14 -41 11 -19 17 -38 14 -43 -3 -4 0
-10 5 -12 6 -2 12 -10 13 -18 2 -8 10 -30 20 -49 9 -19 17 -40 17 -48 0 -8 5
-11 12 -7 8 5 9 2 5 -9 -3 -9 -1 -22 6 -29 7 -8 13 -20 15 -28 2 -8 10 -31 20
-50 9 -19 17 -37 17 -40 1 -3 8 -18 15 -35 7 -16 14 -32 15 -35 0 -3 6 -15 13
-27 7 -13 9 -23 5 -23 -4 0 -3 -4 4 -8 6 -4 13 -16 15 -27 1 -11 5 -22 8 -25
10 -10 30 -50 30 -60 0 -6 12 -34 26 -63 14 -28 27 -61 29 -71 3 -11 8 -22 12
-25 5 -3 9 -14 11 -24 2 -10 12 -35 24 -55 11 -20 21 -43 23 -52 2 -8 15 -42
30 -75 15 -33 35 -76 43 -95 9 -19 17 -41 18 -49 2 -7 7 -18 13 -24 6 -6 11
-19 11 -29 0 -10 5 -18 12 -18 6 0 8 -3 5 -7 -4 -3 -2 -12 4 -20 6 -7 8 -13 5
-13 -4 0 1 -12 12 -27 10 -16 17 -34 15 -40 -3 -7 0 -13 7 -13 6 0 8 -4 5 -10
-3 -5 -1 -10 6 -10 7 0 10 -3 6 -6 -3 -4 3 -24 13 -45 11 -21 29 -63 41 -94
11 -30 24 -55 29 -55 5 0 7 -9 5 -19 -2 -11 3 -22 11 -25 7 -3 11 -12 8 -21
-3 -8 -1 -15 5 -15 6 0 11 -9 11 -19 0 -11 5 -23 10 -26 6 -3 10 -14 10 -24 0
-10 6 -24 14 -31 8 -6 12 -18 9 -26 -3 -8 -1 -14 4 -14 20 0 8 -71 -16 -90 -9
-7 -52 -61 -76 -94 -11 -16 -25 -33 -30 -40 -6 -6 -35 -42 -65 -81 -30 -38
-60 -74 -67 -78 -8 -5 -11 -12 -8 -18 4 -5 2 -9 -3 -9 -5 0 -22 -19 -39 -43
-17 -23 -47 -61 -67 -82 -19 -22 -36 -44 -36 -48 0 -5 -16 -24 -35 -43 -19
-18 -34 -36 -33 -38 2 -3 -10 -20 -27 -39 -16 -19 -39 -47 -50 -63 -11 -15
-28 -36 -38 -46 -9 -10 -16 -21 -15 -26 0 -4 -7 -25 -16 -46 -27 -59 -27 -147
0 -212 12 -29 19 -56 15 -60 -3 -4 0 -4 7 0 7 4 12 2 12 -6 0 -25 93 -111 125
-116 11 -2 25 -9 30 -16 6 -6 18 -10 28 -8 9 2 17 0 17 -5 0 -5 89 -9 198 -9
195 -1 248 -6 236 -25 -3 -5 1 -23 10 -39 9 -19 10 -28 3 -23 -7 4 -6 -1 2
-10 8 -10 11 -20 8 -24 -4 -3 -1 -13 5 -21 12 -14 16 -28 20 -64 1 -10 6 -18
11 -18 5 0 7 -7 4 -15 -4 -8 -2 -17 4 -21 5 -3 7 -14 4 -25 -4 -10 -2 -19 3
-19 8 0 13 -16 22 -65 1 -2 5 -18 10 -35 7 -23 5 -33 -6 -43 -8 -6 -20 -18
-27 -25 -7 -7 -20 -21 -29 -30 -10 -9 -18 -22 -18 -29 0 -7 -4 -13 -8 -13 -9
0 -52 -80 -76 -143 -10 -23 -11 -35 -4 -31 7 5 8 3 2 -7 -27 -45 -23 -212 8
-286 6 -15 12 -30 12 -33 5 -20 32 -70 39 -70 5 0 7 -5 5 -11 -2 -7 11 -26 29
-44 18 -18 33 -36 34 -41 0 -11 85 -74 100 -74 5 0 7 -5 4 -10 -4 -6 -3 -9 2
-8 14 4 53 -13 53 -23 0 -5 3 -8 8 -7 9 2 63 -13 77 -20 25 -15 165 -20 230
-8 22 4 49 9 60 11 11 2 22 4 25 5 3 1 8 2 13 1 4 0 7 3 7 7 0 5 16 14 35 22
19 8 35 18 35 22 0 5 4 7 9 3 5 -3 17 5 25 17 9 12 16 18 16 13 1 -6 9 0 19
12 10 12 20 21 22 19 2 -2 10 2 17 10 7 8 10 14 7 14 -3 0 7 12 22 26 15 14
29 30 29 35 1 5 2 14 3 20 0 5 6 7 11 4 6 -3 10 1 10 9 0 8 6 21 13 28 6 7 14
22 15 33 2 11 7 22 10 25 4 3 7 14 6 25 0 11 3 25 7 30 7 12 9 22 14 90 2 28
4 52 5 55 1 3 1 10 0 15 -1 6 -4 26 -7 45 -2 19 -7 42 -10 50 -3 8 -8 26 -10
40 -2 14 -8 27 -14 28 -5 2 -9 9 -9 16 0 18 -24 66 -32 66 -5 0 -8 4 -8 10 0
10 -16 31 -62 81 -25 28 -30 77 -5 62 6 -3 7 -1 3 6 -4 6 -2 18 4 26 7 8 10
15 7 15 -3 0 5 25 18 55 14 30 21 55 17 55 -4 0 -1 4 5 8 7 4 14 17 16 29 1
12 9 28 16 37 7 9 11 16 8 16 -4 0 2 20 13 44 10 24 16 47 13 50 -4 3 -1 6 5
6 7 0 11 3 10 8 -1 4 3 17 10 28 11 22 62 39 62 22 0 -5 5 -6 12 -2 19 12
2778 11 2778 -1 0 -7 3 -7 8 0 9 13 562 14 562 0 0 -5 5 -4 11 2 18 18 57 3
68 -27 5 -16 7 -31 4 -34 -4 -3 -2 -6 4 -6 6 0 13 -12 16 -28 10 -53 16 -74
27 -87 8 -10 7 -14 -2 -17 -10 -4 -9 -9 4 -21 9 -10 15 -26 13 -37 -2 -11 0
-20 4 -20 9 0 33 -92 37 -137 2 -30 -5 -38 -28 -34 -8 1 -12 -15 -9 -31 0 -5
-6 -8 -14 -8 -8 0 -15 -4 -15 -9 0 -5 -6 -16 -13 -23 -22 -23 -47 -67 -47 -83
0 -8 -4 -15 -9 -15 -11 0 -32 -56 -24 -64 4 -3 1 -6 -5 -6 -6 0 -9 -9 -7 -20
2 -11 0 -20 -4 -20 -10 0 -9 -216 1 -226 5 -4 8 -20 8 -36 0 -15 5 -28 10 -28
6 0 10 -7 10 -15 0 -18 20 -57 35 -67 6 -4 6 -8 2 -8 -4 0 5 -17 20 -37 33
-44 93 -107 93 -97 0 4 8 -2 18 -12 20 -22 47 -40 82 -54 14 -6 38 -17 54 -24
16 -8 35 -12 43 -9 7 3 13 1 13 -4 0 -10 51 -16 135 -15 89 1 125 6 125 15 0
5 7 7 15 3 8 -3 15 -1 15 5 0 6 3 8 8 6 7 -5 25 3 110 47 17 10 32 22 32 27 0
5 7 9 15 9 8 0 15 8 15 18 0 14 2 15 10 2 8 -12 10 -12 10 -1 0 7 11 23 24 35
31 29 87 112 79 120 -4 3 -1 6 6 6 7 0 9 5 6 10 -3 6 -1 10 5 10 7 0 10 7 6
15 -3 8 -1 15 5 15 5 0 9 6 8 13 -1 6 3 26 10 42 18 42 18 207 0 240 -3 6 -4
20 -3 32 0 12 -3 20 -7 17 -5 -3 -9 9 -9 26 0 18 -4 29 -10 25 -5 -3 -10 1
-10 10 0 20 -82 145 -91 139 -3 -2 -11 8 -17 21 -9 19 -8 32 5 62 9 21 17 41
17 45 1 3 4 10 9 14 4 4 7 16 7 26 0 10 4 18 10 18 5 0 7 7 4 15 -4 8 -1 15 6
15 7 0 10 7 6 15 -3 8 0 15 6 15 6 0 8 3 5 7 -4 3 -2 12 4 20 6 7 9 13 6 13
-4 0 4 20 18 45 13 25 18 42 12 38 -7 -4 -5 1 3 11 13 17 20 35 22 63 1 7 5
10 10 7 4 -3 8 2 8 11 0 9 5 13 10 10 6 -3 10 -3 10 2 0 4 113 7 250 7 138 -1
252 2 255 6 6 10 9 259 3 265 -6 6 -3158 8 -3164 2 -2 -2 -29 0 -59 3 -31 3
-58 4 -60 1 -2 -4 -38 -4 -80 -1 -42 3 -78 3 -80 -1 -2 -3 -29 -2 -60 1 -31 3
-58 3 -60 0 -2 -3 -29 -3 -60 0 -31 3 -58 2 -61 -2 -3 -5 -9 -6 -14 -3 -8 5
-202 9 -225 4 -5 -1 -13 -1 -17 0 -13 2 -1683 2 -1693 1 -6 -2 -14 -2 -20 -1
-5 1 -158 2 -340 1 -181 0 -341 3 -355 7 -20 6 -25 15 -25 38 0 17 3 35 7 40
5 6 18 22 31 37 12 15 31 39 42 54 11 14 29 34 39 45 11 10 17 19 13 19 -3 0
6 13 21 29 38 42 53 61 49 61 -4 0 43 57 80 96 12 13 19 24 16 24 -4 0 2 8 13
19 10 10 26 28 34 41 8 12 20 28 26 34 5 6 40 51 77 99 37 48 67 84 67 80 0
-4 10 9 23 30 13 21 27 34 32 30 4 -4 5 -3 2 3 -4 6 2 19 13 29 11 10 17 22
13 28 -3 5 -2 8 3 5 9 -5 44 26 44 40 1 16 59 72 77 73 10 0 27 2 38 4 18 4
101 14 165 21 14 1 25 3 25 4 0 3 54 9 103 12 23 1 42 5 42 8 0 3 21 6 48 7
70 2 116 8 129 16 6 4 14 3 18 -3 4 -7 12 -7 24 0 17 8 99 20 164 23 15 1 27
4 27 7 0 3 17 6 38 7 91 4 132 8 132 14 0 8 32 5 47 -4 6 -4 14 -3 18 2 3 5
13 10 23 10 9 0 33 3 52 5 19 3 53 8 75 10 22 3 50 7 63 10 13 3 43 6 68 7 24
2 44 8 44 13 0 6 4 5 9 -3 5 -8 14 -10 22 -5 8 4 27 9 44 10 42 4 116 13 140
17 11 3 26 -1 34 -7 11 -8 13 -8 7 1 -5 9 1 13 21 14 15 0 37 2 48 5 29 6 95
14 132 16 18 1 30 5 26 11 -3 5 4 4 14 -2 11 -6 23 -8 26 -5 3 4 27 8 54 11
26 2 66 6 88 9 22 3 63 8 90 11 28 2 53 9 56 15 4 7 9 6 13 -1 5 -7 14 -8 24
-3 9 5 32 8 50 7 17 0 32 2 32 6 0 4 17 6 38 5 20 -2 42 0 47 3 6 3 26 6 45 7
19 1 35 3 35 4 0 1 18 3 40 5 38 2 63 5 168 22 23 4 57 6 75 6 17 0 32 3 32 6
0 4 15 6 33 6 17 -1 38 3 46 9 12 9 13 8 6 -3 -6 -10 -4 -12 4 -6 7 4 32 9 54
11 23 2 62 6 87 10 25 4 59 8 75 10 17 2 44 6 60 8 83 12 144 19 177 19 21 0
36 3 34 6 -2 3 15 7 37 7 23 1 65 4 92 7 28 4 77 9 110 12 33 3 63 11 67 18 6
9 8 9 8 0 0 -9 7 -10 23 -4 12 5 32 7 45 5 12 -2 22 -1 22 4 0 4 17 7 37 6 21
0 44 4 51 9 8 6 12 6 12 -2 0 -7 5 -9 12 -4 7 4 24 8 38 9 26 1 107 10 163 19
50 8 123 17 237 29 39 4 132 15 170 20 58 8 118 16 155 22 22 3 59 7 83 8 23
0 42 4 42 7 0 3 11 5 25 4 14 -2 25 2 25 8 0 8 3 8 8 2 6 -9 28 -11 42 -5 3 1
21 4 40 6 61 6 105 12 105 14 0 2 107 13 137 13 15 1 25 4 23 7 -2 3 22 6 53
8 68 2 83 5 101 16 10 6 12 5 7 -2 -8 -13 6 -17 17 -5 4 3 22 8 39 9 92 8 143
13 143 14 0 5 116 19 185 23 19 1 38 6 42 12 5 6 8 5 8 -3 0 -10 5 -10 20 -2
11 6 25 8 30 5 6 -3 10 -1 10 6 0 8 4 9 13 0 10 -8 17 -7 25 1 9 9 12 9 12 -2
0 -11 2 -12 8 -3 4 6 37 14 72 17 36 3 74 8 85 10 11 2 24 5 29 5 5 1 6 4 3 7
-3 4 -2 14 3 24 5 10 6 20 3 24 -9 9 -19 82 -13 96 1 3 3 25 5 50 2 25 6 61 9
80 8 57 19 152 22 195 1 22 3 42 4 45 1 3 2 9 1 14 -1 4 4 15 11 24 10 12 10
14 1 8 -16 -9 -17 6 -1 22 9 9 9 12 -3 12 -12 0 -12 2 1 10 12 8 12 10 1 10
-9 0 -10 4 -4 13 6 6 11 28 12 47 3 63 16 170 26 230 5 27 17 160 18 198 1 12
5 22 10 22 5 0 4 7 -3 15 -7 9 -8 15 -2 15 5 0 9 16 7 35 -1 20 3 35 9 35 6 0
4 5 -4 10 -8 5 -10 10 -5 10 6 0 10 15 11 33 1 32 12 148 17 170 1 7 7 15 12
19 6 5 5 8 -3 8 -7 0 -11 4 -8 8 6 11 20 128 19 165 0 15 2 27 6 27 3 0 6 17
7 38 1 43 12 167 14 167 2 0 6 36 13 115 3 30 8 71 11 90 4 19 8 64 11 100 2
36 5 65 5 65 1 0 3 23 6 50 2 28 6 68 9 90 3 22 8 54 10 70 2 17 5 49 6 72 1
25 6 40 12 36 6 -4 7 -1 1 8 -4 8 -10 41 -11 73 -2 32 -7 64 -11 70 -5 6 -7
21 -6 34 0 12 -3 22 -9 22 -6 0 -8 3 -4 6 3 4 0 19 -9 35 -8 16 -12 29 -9 29
4 0 -3 13 -14 29 -12 16 -21 37 -21 48 0 15 -2 16 -10 3 -8 -12 -10 -11 -10 8
0 12 -4 22 -10 22 -5 0 -10 7 -10 16 0 8 -3 13 -7 11 -5 -3 -14 1 -21 9 -10
11 -10 14 0 14 7 1 0 8 -15 16 -15 8 -25 19 -22 25 4 5 3 8 -2 7 -5 -2 -19 7
-33 20 -13 12 -30 22 -37 22 -7 0 -13 4 -13 9 0 11 -121 72 -148 74 -12 1 -22
4 -22 8 0 4 -10 7 -22 8 -50 3 -103 9 -103 11 0 3 -133 13 -355 26 -58 3 -111
11 -119 18 -11 8 -13 8 -8 -1 6 -9 -3 -11 -30 -7 -66 8 -98 8 -111 0 -7 -4
-12 -3 -12 1 0 5 -30 10 -67 11 -92 4 -191 10 -293 18 -47 3 -102 6 -123 6
-20 0 -39 4 -42 8 -3 5 -18 5 -34 0 -16 -4 -32 -6 -35 -2 -6 5 -52 9 -164 13
-35 2 -66 7 -69 12 -3 5 -9 3 -13 -4 -7 -10 -12 -10 -23 -1 -7 7 -17 9 -21 5
-12 -12 -36 -12 -36 0 0 7 -5 5 -10 -3 -5 -8 -10 -10 -10 -4 0 6 -25 11 -57
12 -144 3 -254 10 -260 16 -11 11 -24 6 -17 -6 6 -10 4 -10 -7 -2 -8 6 -36 12
-64 13 -64 2 -77 5 -94 15 -9 6 -12 5 -8 -1 4 -6 -14 -9 -43 -9 -28 1 -50 3
-50 6 0 3 -26 6 -58 6 -146 4 -200 9 -195 17 3 5 -3 4 -14 -1 -11 -6 -25 -7
-33 -2 -8 5 -21 5 -31 -1 -11 -5 -20 -5 -23 0 -7 10 -25 9 -42 -2 -6 -3 -14
-3 -18 1 -4 4 -19 8 -34 8 -15 1 -66 4 -114 7 -48 3 -92 8 -97 12 -6 3 -11 1
-11 -5 0 -6 -5 -8 -12 -4 -6 4 -32 9 -57 11 -25 1 -73 5 -106 7 -33 2 -60 5
-60 6 0 1 -19 3 -43 3 -23 1 -42 -2 -42 -8 0 -6 -3 -6 -8 0 -7 10 -78 17 -209
19 -35 1 -63 4 -63 8 0 4 -11 3 -25 -2 -14 -5 -25 -6 -25 -1 0 4 -22 7 -50 7
-27 -1 -50 2 -50 7 0 5 -6 4 -14 -2 -9 -8 -16 -8 -20 -2 -5 7 -15 7 -32 1 -14
-6 -23 -6 -20 -1 3 5 -18 8 -47 7 -28 -2 -56 0 -62 3 -10 5 -33 7 -125 11 -30
2 -61 7 -67 13 -9 6 -13 6 -13 -1 0 -6 -9 -10 -20 -9 -11 1 -20 4 -20 8 0 4
-14 4 -30 -1 -17 -5 -30 -5 -30 -1 0 4 -22 7 -50 7 -27 -1 -50 2 -50 7 0 5 -7
4 -15 -3 -8 -7 -15 -9 -15 -4 0 5 -29 9 -65 8 -36 0 -65 3 -65 8 0 4 -11 3
-25 -2 -16 -6 -26 -6 -31 1 -4 8 -9 7 -15 -2 -5 -8 -9 -9 -9 -3 0 6 -24 11
-57 11 -53 1 -186 10 -258 18 -16 1 -56 3 -88 4 -41 1 -56 4 -51 13 5 7 3 8
-7 2 -18 -12 -50 -12 -71 -2 -12 6 -18 5 -18 -2 0 -6 -5 -8 -12 -3 -7 4 -31 8
-53 9 -22 1 -41 3 -42 4 -9 5 -113 1 -123 -5 -9 -6 -11 -4 -5 5 6 10 3 12 -13
8 -12 -4 -25 -2 -28 3 -4 6 -11 6 -19 -1 -10 -8 -15 -8 -20 0 -5 8 -11 8 -19
1 -7 -6 -16 -8 -19 -5 -3 4 -41 8 -84 10 -92 5 -188 12 -188 14 0 1 -32 2 -70
4 -39 1 -75 4 -80 7 -6 3 -43 5 -82 4 -40 0 -73 2 -73 5 0 3 -33 5 -73 5 -39
-1 -80 3 -89 7 -12 6 -18 5 -18 -2 0 -6 -5 -8 -12 -4 -7 4 -29 8 -49 8 -21 1
-40 4 -44 8 -4 4 -18 3 -31 -2 -16 -6 -24 -6 -24 1 0 6 -7 6 -17 1 -19 -9 -29
-9 -53 0 -8 4 -28 6 -45 6 -16 0 -75 3 -130 7 -55 4 -117 8 -137 8 -20 1 -40
5 -43 9 -4 4 -16 3 -26 -3 -11 -5 -19 -6 -19 -2 0 4 -21 9 -48 10 -26 1 -64 3
-84 5 -21 2 -38 0 -38 -5 0 -4 -6 -5 -12 0 -7 4 -41 8 -76 9 -35 1 -65 4 -68
6 -2 3 -26 3 -54 2 -31 -2 -50 1 -50 8 0 7 -5 6 -15 -2 -8 -6 -19 -9 -24 -5
-6 3 -57 8 -113 10 -57 3 -139 7 -183 11 -44 3 -96 7 -115 8 -19 1 -41 5 -47
9 -7 5 -13 5 -14 0 0 -4 -5 3 -11 17 -6 14 -10 28 -10 33 1 4 -2 7 -7 7 -5 0
-12 14 -16 30 -4 17 -11 30 -17 30 -6 0 -9 3 -6 6 6 6 -10 46 -92 228 -11 25
-20 50 -20 55 0 6 -4 11 -8 11 -5 0 -9 7 -10 15 -1 8 -3 22 -4 30 -1 8 -5 15
-10 15 -4 0 -8 7 -8 15 0 8 -5 15 -11 15 -5 0 -8 4 -5 9 3 4 -8 37 -25 72 -17
35 -33 72 -35 82 -2 11 -8 25 -14 31 -5 7 -7 16 -3 19 3 4 1 7 -5 7 -7 0 -12
9 -12 19 0 11 -4 23 -10 26 -5 3 -10 15 -10 26 0 10 -4 19 -9 19 -5 0 -11 13
-14 28 -4 21 -19 35 -56 56 -28 15 -51 24 -51 21 0 -4 -7 1 -16 9 -8 9 -20 14
-25 11 -5 -4 -9 -1 -9 5 0 6 -4 8 -10 5 -5 -3 -10 -1 -10 5 0 7 -7 10 -15 6
-8 -3 -15 -2 -15 3 0 4 -10 12 -22 18 -98 45 -126 59 -146 74 -12 10 -18 19
-13 21 4 1 18 22 29 45 14 31 17 45 8 51 -12 10 -128 67 -136 67 -16 1 -70 29
-70 37 0 5 -4 7 -9 4 -5 -3 -14 0 -20 8 -6 7 -22 12 -36 11 -13 -2 -23 1 -22
7 1 6 -5 12 -13 13 -8 2 -42 16 -75 31 -33 15 -62 28 -65 29 -3 0 -15 6 -27
13 -13 7 -23 9 -23 5 0 -4 -4 -3 -8 2 -4 6 -16 17 -26 25 -18 13 -19 13 -11 0
6 -11 3 -10 -12 3 -11 9 -27 17 -36 17 -8 0 -23 7 -31 16 -9 8 -16 13 -16 9 0
-3 -10 0 -22 7 -13 7 -26 11 -30 10 -5 -1 -8 4 -8 11 0 8 -4 7 -10 -3 -5 -8
-10 -10 -10 -5 0 13 -73 15 -123 4z"/>
</g>
</svg>
